<svg id="SvgjsSvg1001" width="288" height="288" xmlns="http://www.w3.org/2000/svg" version="1.1" xmlns:xlink="http://www.w3.org/1999/xlink" xmlns:svgjs="http://svgjs.com/svgjs"><defs id="SvgjsDefs1002"></defs><g id="SvgjsG1008" transform="matrix(1,0,0,1,0,0)"><svg xmlns="http://www.w3.org/2000/svg" width="288" height="288" viewBox="0 0 100 100"><path d="M 37 6 C 36.307 6 35.662828 6.3592187 35.298828 6.9492188 C 34.934828 7.5392187 34.900937 8.2745313 35.210938 8.8945312 L 37 12.472656 L 37 31.429688 C 35.69 32.363687 33.653 33.647719 32 34.636719 L 32 14.472656 L 33.789062 10.894531 C 34.099063 10.274531 34.066172 9.5372656 33.701172 8.9472656 C 33.337172 8.3582656 32.693 8 32 8 L 18 8 C 17.307 8 16.662828 8.3592187 16.298828 8.9492188 C 15.934828 9.5392187 15.900937 10.274531 16.210938 10.894531 L 18 14.472656 L 18 35.199219 C 16.833 34.705219 15.557172 34.161766 14.576172 33.634766 C 14.681172 33.549766 14.786625 33.463859 14.890625 33.380859 C 15.345625 33.013859 15.774188 32.667375 16.117188 32.359375 C 16.599187 31.927375 17.131844 31.188328 16.964844 30.111328 C 16.919844 29.581328 16.665906 29.088141 16.253906 28.744141 C 15.891906 28.441141 15.437656 28.279297 14.972656 28.279297 C 14.853656 28.279297 14.734234 28.289547 14.615234 28.310547 C 12.885234 28.624547 11.560203 29.150984 10.158203 29.708984 C 9.6372031 29.915984 9.0930469 30.133609 8.4980469 30.349609 C 7.7070469 30.636609 7.1816406 31.387516 7.1816406 32.228516 L 7.1816406 32.429688 C 7.1816406 32.553688 7.1928437 32.676828 7.2148438 32.798828 C 8.0378438 37.176828 10.793219 38.919187 11.699219 39.492188 C 13.267219 40.484187 16.002672 42.088328 18.138672 43.111328 L 18.005859 56.517578 L 16.212891 60.105469 C 15.902891 60.725469 15.935781 61.460781 16.300781 62.050781 C 16.663781 62.640781 17.307 63 18 63 L 32 63 C 32.693 63 33.337172 62.640781 33.701172 62.050781 C 34.065172 61.460781 34.099063 60.725469 33.789062 60.105469 L 32 56.527344 L 32 43.511719 C 33.615 42.965719 35.384 42.120266 37 41.197266 L 37 60.607422 L 35.21875 64.089844 C 34.90175 64.709844 34.929969 65.448969 35.292969 66.042969 C 35.656969 66.637969 36.304 67 37 67 L 51 67 C 51.693 67 52.337172 66.640781 52.701172 66.050781 C 53.065172 65.460781 53.099062 64.725469 52.789062 64.105469 L 51 60.527344 L 51 33.794922 C 54.276 32.558922 55.934469 32.326156 57.730469 32.285156 L 58.644531 45.816406 L 58.414062 45.585938 C 58.030062 45.202937 57.517047 45 56.998047 45 C 56.694047 45 56.389469 45.068938 56.105469 45.210938 C 55.335469 45.595937 54.897531 46.430203 55.019531 47.283203 L 57.267578 63.017578 C 57.178578 63.005578 57.088047 63 56.998047 63 C 56.680047 63 56.360406 63.075469 56.066406 63.230469 C 55.290406 63.639469 54.872203 64.507141 55.033203 65.369141 L 61.033203 97.369141 C 61.211203 98.318141 62.040047 99 62.998047 99 C 63.027047 99 63.056938 98.999047 63.085938 98.998047 C 64.079937 98.955047 64.891234 98.189219 64.990234 97.199219 L 66.570312 81.398438 L 66.585938 81.414062 C 66.968937 81.796062 67.481953 82 68.001953 82 C 68.277953 82 68.554406 81.943172 68.816406 81.826172 C 69.573406 81.488172 70.044047 80.716672 69.998047 79.888672 L 69.287109 67.115234 L 69.587891 67.414062 C 69.969891 67.797062 70.481 68 71 68 C 71.279 68 71.561172 67.940313 71.826172 67.820312 C 72.585172 67.476313 73.049141 66.697234 72.994141 65.865234 L 72.357422 56.339844 C 72.561422 56.547844 72.750969 56.749313 72.917969 56.945312 C 72.941969 56.973312 72.965234 56.999391 72.990234 57.025391 C 73.548234 57.613391 74.385516 57.964844 75.228516 57.964844 C 75.408516 57.964844 75.587672 57.948016 75.763672 57.916016 C 77.253672 57.655016 79.713359 57.051531 80.943359 56.644531 C 82.964359 56.035531 84.321688 55.533781 86.054688 53.800781 C 86.320688 53.534781 86.505844 53.199984 86.589844 52.833984 C 86.964844 51.196984 86.995859 51.002453 87.005859 50.939453 C 87.449859 48.105453 87.63325 42.547031 87.78125 38.082031 C 87.82425 36.774031 87.865203 35.552766 87.908203 34.509766 C 87.928203 34.023766 87.770844 33.547922 87.464844 33.169922 C 85.478844 30.717922 81.646719 24.888656 80.386719 22.972656 L 80.3125 22.859375 C 79.5555 21.701375 78.278391 21.007812 76.900391 21.007812 C 76.500391 21.007812 76.102797 21.067594 75.716797 21.183594 C 74.667797 21.495594 73.291953 21.906875 72.001953 22.296875 L 72.001953 21 C 72.001953 19.895 71.106953 19 70.001953 19 L 59 19 C 58.447 19 57.919016 19.229812 57.541016 19.632812 C 57.163016 20.035812 56.968906 20.576906 57.003906 21.128906 L 57.253906 24.996094 C 55.201906 25.172094 52.776 25.630766 51 26.009766 L 51 12.453125 L 52.714844 8.8613281 C 53.010844 8.2413281 52.967563 7.5145938 52.601562 6.9335938 C 52.234562 6.3525938 51.597156 6 50.910156 6 L 37 6 z M 38.201172 8 L 49.589844 8 L 43.517578 11.416016 L 38.201172 8 z M 50.644531 8.5546875 L 49 12 L 49 28.519531 C 49 28.519531 55.355781 26.921875 58.800781 26.921875 C 59.005781 26.921875 59.201766 26.927453 59.384766 26.939453 L 59.033203 21.527344 L 64.007812 25.255859 L 64.365234 36.523438 A 0.50024408 0.50024408 0 0 0 65.365234 36.492188 L 65.007812 25.244141 L 70 21.5 L 70 25 C 71.68 24.48 74.539063 23.619609 76.289062 23.099609 C 76.492063 23.038609 76.698391 23.009766 76.900391 23.009766 C 77.592391 23.009766 78.245625 23.356938 78.640625 23.960938 C 79.850625 25.800937 83.820156 31.849688 85.910156 34.429688 C 85.720156 39.029688 85.579297 47.120859 85.029297 50.630859 C 84.999297 50.820859 84.640625 52.390625 84.640625 52.390625 C 83.270625 53.760625 82.299844 54.150234 80.339844 54.740234 C 79.169844 55.130234 76.780156 55.709219 75.410156 55.949219 C 75.349156 55.960219 75.288516 55.966797 75.228516 55.966797 C 74.903516 55.966797 74.600453 55.819391 74.439453 55.650391 C 73.239453 54.240391 71.37 52.838125 70 51.078125 L 71 66 L 67 62 L 68 80 L 65 77 L 63.300781 94.001953 L 62.076172 72.783203 L 64.146484 74.853516 A 0.50005 0.50005 0 0 0 64.998047 74.453125 L 63.128906 54.835938 L 65.146484 56.853516 A 0.50005 0.50005 0 0 0 66 56.484375 L 65.808594 50.482422 A 0.50005 0.50005 0 0 0 65.285156 49.992188 A 0.50005 0.50005 0 0 0 64.808594 50.513672 L 64.958984 55.251953 L 62.853516 53.146484 A 0.50005 0.50005 0 0 0 62.001953 53.546875 L 63.871094 73.164062 L 61.853516 71.146484 A 0.50005 0.50005 0 0 0 61 71.529297 L 62.234375 92.912109 L 57 65 L 60 68 L 57 47 L 61 51 L 59.599609 30.279297 C 59.262609 30.279297 58.941906 30.277344 58.628906 30.277344 C 56.047906 30.277344 54.061 30.387688 49 32.429688 L 49 61 L 50.751953 64.505859 L 44 60.707031 L 44 12.292969 L 50.644531 8.5546875 z M 37.304688 8.6113281 L 43 12.271484 L 43 60.728516 L 37.316406 64.382812 L 39 61.089844 L 39 37.519531 C 36.65 39.279531 32.74 41.41 30 42 L 30 57 L 31.751953 60.505859 L 25 56.707031 L 25 38.5 A 0.50005 0.50005 0 0 0 24.492188 37.992188 A 0.50005 0.50005 0 0 0 24 38.5 L 24 56.728516 L 18.304688 60.388672 L 20 57 L 20.150391 41.820312 C 18.200391 41.040312 14.718578 39.036734 12.767578 37.802734 C 11.664578 37.104734 9.7966875 35.709688 9.1796875 32.429688 L 9.1796875 32.230469 C 11.329688 31.450469 12.820703 30.669297 14.970703 30.279297 C 14.970703 30.469297 15.10325 30.580141 14.78125 30.869141 C 14.21425 31.377141 13.274297 32.093422 12.529297 32.732422 C 11.876297 33.292422 11.927672 34.316781 12.638672 34.800781 C 12.722672 34.857781 12.806625 34.913703 12.890625 34.970703 C 14.460625 35.950703 17.019297 36.930938 18.779297 37.710938 C 19.179297 37.910937 20 38 20 38 L 20 14 L 18.304688 10.611328 L 24 14.271484 L 24 23.457031 A 0.50005 0.50005 0 1 0 25 23.457031 L 25 14.292969 L 31.751953 10.494141 L 30 14 L 30 38 C 30.78 37.8 37.04 33.999687 39 32.429688 L 39 12 L 37.304688 8.6113281 z M 19.201172 10 L 30.589844 10 L 24.517578 13.416016 L 19.201172 10 z M 60.001953 21 L 68.998047 21 L 64.5 24.375 L 60.001953 21 z M 24.492188 26.015625 A 0.50005 0.50005 0 0 0 24 26.521484 L 24 31.478516 A 0.50005 0.50005 0 1 0 25 31.478516 L 25 26.521484 A 0.50005 0.50005 0 0 0 24.492188 26.015625 z M 75.644531 27.064453 C 75.644531 27.064453 71.759047 27.608 69.998047 28 L 69.998047 48.435547 C 70.781047 49.413547 73.423109 51.092453 75.037109 51.939453 C 75.055109 51.973453 75.078422 51.988281 75.107422 51.988281 C 75.12208 51.988281 75.144763 51.968026 75.162109 51.960938 L 75.166016 51.972656 C 75.166016 51.972656 76.471336 51.529706 77.828125 50.923828 C 78.506519 50.620889 79.198247 50.278749 79.765625 49.916016 C 80.333003 49.553282 80.819242 49.223864 80.982422 48.632812 C 81.146009 48.039961 81.259531 46.95202 81.378906 45.541016 C 81.498282 44.130011 81.607317 42.436881 81.699219 40.804688 C 81.883022 37.540298 82 34.519531 82 34.519531 A 0.50005 0.50005 0 0 0 81.886719 34.181641 L 76.365234 27.474609 C 76.336221 27.399117 76.297989 27.329239 76.230469 27.261719 C 76.195429 27.226679 76.159987 27.205272 76.125 27.181641 C 75.964281 27.073087 75.805492 27.064453 75.644531 27.064453 z M 74.630859 29.234375 C 75.336859 32.744375 75.796875 36.228281 75.796875 41.238281 C 75.796875 42.469281 75.041391 46.734656 74.525391 49.347656 C 73.502391 48.723656 72.556 48.063562 72 47.601562 L 72 29.652344 C 72.89 29.498344 73.871859 29.347375 74.630859 29.234375 z M 76.697266 29.451172 L 80.990234 34.669922 C 80.983434 34.844235 80.87883 37.592802 80.701172 40.748047 C 80.609572 42.374853 80.500813 44.062286 80.382812 45.457031 C 80.264814 46.851777 80.119991 47.996039 80.017578 48.367188 C 80.008778 48.399138 79.721747 48.755686 79.226562 49.072266 C 78.731379 49.388845 78.072278 49.718454 77.419922 50.009766 C 76.980374 50.206046 76.607311 50.348223 76.222656 50.5 C 76.34154 50.276134 76.427734 50.094813 76.427734 50.044922 C 76.427734 50.044922 77.796875 43.196234 77.796875 41.240234 C 77.796875 36.289388 77.335264 32.754569 76.697266 29.451172 z M 64.935547 38.994141 A 0.50005 0.50005 0 0 0 64.460938 39.515625 L 64.525391 41.544922 A 0.50027553 0.50027553 0 1 0 65.525391 41.511719 L 65.458984 39.484375 A 0.50005 0.50005 0 0 0 64.935547 38.994141 z M 65.089844 43.826172 A 0.50005 0.50005 0 0 0 64.613281 44.347656 L 64.710938 47.412109 A 0.50024408 0.50024408 0 0 0 65.710938 47.380859 L 65.613281 44.316406 A 0.50005 0.50005 0 0 0 65.089844 43.826172 z M 24.517578 57.583984 L 30.589844 61 L 19.201172 61 L 24.517578 57.583984 z M 43.517578 61.583984 L 49.589844 65 L 38.201172 65 L 43.517578 61.583984 z" fill="#ffffff" class="color000 svgShape"></path></svg></g></svg>